# xmcd
#
# Track frame offsets: 
#        150
#        11603
#        27303
#        55793
#        76805
#        92680
#        105710
#        116024
#        146195
#        161498
#        174221
#        191868
#        212488
#        222876
#        234919
#        245785
#        262179
#
# Disc length: 3763 seconds
#
# Revision: 0
# Processed by: cddbd v1.5.2PL0 Copyright (c) Steve Scherf et al.
# Submitted via: ExactAudioCopy v1.1
#
DISCID=ea0eb111
DTITLE=Guido Belcanto - 30 Jaar - CD 2 - Vergeten Parels, Weeskinderen
DTITLE=En Rariteiten
DYEAR=2019
DGENRE=Chanson
TTITLE0=Dirk En Guido - Ragtime
TTITLE1=Dirk En Guido - Roll On Buddy
TTITLE2=Riverboat Shuffle - Spagetti Blues
TTITLE3=Riverboat Shuffle - Red Band Blues
TTITLE4=Speedy King And His Feetwarmers - Moon Of Mexicobay
TTITLE5=The Gigolo's - Home Sweet Home
TTITLE6=The Gigolo's - Oowee Oowee Oowee
TTITLE7=Guido Belcanto Met Jakke De Zeeman - De Man Die Niet Kon Wenen
TTITLE8=Bus En Tramlied
TTITLE9=De Jeugd Van Tegenwoordig
TTITLE10=De Dag Dat Mijn Meisje Me Verliet
TTITLE11=Niemand Zong Zo Mooi De Blues Als Ferre Grignard
TTITLE12=Waarom Ik Van Honden Hou
TTITLE13=Guido Belcanto Met Marco Z - Autobanden In De Slipstream
TTITLE14=Puntschoenen En Een Zonnebril
TTITLE15=Guido Belcanto Met Sint Andries MC's - Iedereen 1 (Ode Aan De
TTITLE15=n Antwerp)
TTITLE16=Guido Belcanto Met Tactloos - Wat Moet Je Doen
EXTD=
EXTT0=
EXTT1=
EXTT2=
EXTT3=
EXTT4=
EXTT5=
EXTT6=
EXTT7=
EXTT8=
EXTT9=
EXTT10=
EXTT11=
EXTT12=
EXTT13=
EXTT14=
EXTT15=
EXTT16=
PLAYORDER=
